<mxfile host="app.diagrams.net" modified="2024-04-12T17:18:11.391Z" agent="Mozilla/5.0 (Windows NT 10.0; Win64; x64) AppleWebKit/537.36 (KHTML, like Gecko) Chrome/122.0.0.0 Safari/537.36" etag="5LwXzQuEprHerQZS4AmI" version="24.0.6" type="device">
  <diagram id="C5RBs43oDa-KdzZeNtuy" name="Page-1">
    <mxGraphModel dx="1932" dy="635" grid="1" gridSize="10" guides="1" tooltips="1" connect="1" arrows="1" fold="1" page="1" pageScale="1" pageWidth="827" pageHeight="1169" background="#ffffff" math="0" shadow="0">
      <root>
        <mxCell id="WIyWlLk6GJQsqaUBKTNV-0" />
        <mxCell id="WIyWlLk6GJQsqaUBKTNV-1" parent="WIyWlLk6GJQsqaUBKTNV-0" />
        <mxCell id="xv2MYvfBe1ahjcZ1Np9l-15" style="edgeStyle=orthogonalEdgeStyle;rounded=0;orthogonalLoop=1;jettySize=auto;html=1;exitX=0.5;exitY=1;exitDx=0;exitDy=0;" edge="1" parent="WIyWlLk6GJQsqaUBKTNV-1" source="xv2MYvfBe1ahjcZ1Np9l-2" target="xv2MYvfBe1ahjcZ1Np9l-3">
          <mxGeometry relative="1" as="geometry" />
        </mxCell>
        <mxCell id="xv2MYvfBe1ahjcZ1Np9l-2" value="START" style="ellipse;whiteSpace=wrap;html=1;" vertex="1" parent="WIyWlLk6GJQsqaUBKTNV-1">
          <mxGeometry x="10" y="10" width="120" height="80" as="geometry" />
        </mxCell>
        <mxCell id="xv2MYvfBe1ahjcZ1Np9l-16" style="edgeStyle=orthogonalEdgeStyle;rounded=0;orthogonalLoop=1;jettySize=auto;html=1;exitX=0.5;exitY=1;exitDx=0;exitDy=0;entryX=0.5;entryY=0;entryDx=0;entryDy=0;" edge="1" parent="WIyWlLk6GJQsqaUBKTNV-1" source="xv2MYvfBe1ahjcZ1Np9l-3" target="xv2MYvfBe1ahjcZ1Np9l-4">
          <mxGeometry relative="1" as="geometry" />
        </mxCell>
        <mxCell id="xv2MYvfBe1ahjcZ1Np9l-3" value="DISPLAY MENU" style="rounded=1;whiteSpace=wrap;html=1;" vertex="1" parent="WIyWlLk6GJQsqaUBKTNV-1">
          <mxGeometry x="10" y="110" width="120" height="60" as="geometry" />
        </mxCell>
        <mxCell id="xv2MYvfBe1ahjcZ1Np9l-17" style="edgeStyle=orthogonalEdgeStyle;rounded=0;orthogonalLoop=1;jettySize=auto;html=1;exitX=0.5;exitY=1;exitDx=0;exitDy=0;entryX=0.5;entryY=0;entryDx=0;entryDy=0;" edge="1" parent="WIyWlLk6GJQsqaUBKTNV-1" source="xv2MYvfBe1ahjcZ1Np9l-4" target="xv2MYvfBe1ahjcZ1Np9l-5">
          <mxGeometry relative="1" as="geometry" />
        </mxCell>
        <mxCell id="xv2MYvfBe1ahjcZ1Np9l-33" value="NOT DONE" style="edgeLabel;html=1;align=center;verticalAlign=middle;resizable=0;points=[];" vertex="1" connectable="0" parent="xv2MYvfBe1ahjcZ1Np9l-17">
          <mxGeometry x="0.1085" y="-3" relative="1" as="geometry">
            <mxPoint as="offset" />
          </mxGeometry>
        </mxCell>
        <mxCell id="xv2MYvfBe1ahjcZ1Np9l-30" style="edgeStyle=orthogonalEdgeStyle;rounded=0;orthogonalLoop=1;jettySize=auto;html=1;exitX=1;exitY=0.5;exitDx=0;exitDy=0;entryX=0;entryY=0.5;entryDx=0;entryDy=0;" edge="1" parent="WIyWlLk6GJQsqaUBKTNV-1" source="xv2MYvfBe1ahjcZ1Np9l-4" target="xv2MYvfBe1ahjcZ1Np9l-28">
          <mxGeometry relative="1" as="geometry" />
        </mxCell>
        <mxCell id="xv2MYvfBe1ahjcZ1Np9l-32" value="DONE" style="edgeLabel;html=1;align=center;verticalAlign=middle;resizable=0;points=[];" vertex="1" connectable="0" parent="xv2MYvfBe1ahjcZ1Np9l-30">
          <mxGeometry x="-0.4362" y="1" relative="1" as="geometry">
            <mxPoint as="offset" />
          </mxGeometry>
        </mxCell>
        <mxCell id="xv2MYvfBe1ahjcZ1Np9l-4" value="INPUT&lt;div&gt;(switch case)&lt;/div&gt;" style="shape=parallelogram;perimeter=parallelogramPerimeter;whiteSpace=wrap;html=1;fixedSize=1;" vertex="1" parent="WIyWlLk6GJQsqaUBKTNV-1">
          <mxGeometry x="11" y="190" width="120" height="60" as="geometry" />
        </mxCell>
        <mxCell id="xv2MYvfBe1ahjcZ1Np9l-18" style="edgeStyle=orthogonalEdgeStyle;rounded=0;orthogonalLoop=1;jettySize=auto;html=1;exitX=0.5;exitY=1;exitDx=0;exitDy=0;" edge="1" parent="WIyWlLk6GJQsqaUBKTNV-1" source="xv2MYvfBe1ahjcZ1Np9l-5" target="xv2MYvfBe1ahjcZ1Np9l-6">
          <mxGeometry relative="1" as="geometry" />
        </mxCell>
        <mxCell id="xv2MYvfBe1ahjcZ1Np9l-34" value="NO" style="edgeLabel;html=1;align=center;verticalAlign=middle;resizable=0;points=[];" vertex="1" connectable="0" parent="xv2MYvfBe1ahjcZ1Np9l-18">
          <mxGeometry x="0.1979" relative="1" as="geometry">
            <mxPoint as="offset" />
          </mxGeometry>
        </mxCell>
        <mxCell id="xv2MYvfBe1ahjcZ1Np9l-49" style="edgeStyle=orthogonalEdgeStyle;rounded=0;orthogonalLoop=1;jettySize=auto;html=1;exitX=1;exitY=0.5;exitDx=0;exitDy=0;entryX=0;entryY=0.5;entryDx=0;entryDy=0;" edge="1" parent="WIyWlLk6GJQsqaUBKTNV-1" source="xv2MYvfBe1ahjcZ1Np9l-5" target="xv2MYvfBe1ahjcZ1Np9l-44">
          <mxGeometry relative="1" as="geometry" />
        </mxCell>
        <mxCell id="xv2MYvfBe1ahjcZ1Np9l-59" value="YES" style="edgeLabel;html=1;align=center;verticalAlign=middle;resizable=0;points=[];" vertex="1" connectable="0" parent="xv2MYvfBe1ahjcZ1Np9l-49">
          <mxGeometry x="-0.4611" y="2" relative="1" as="geometry">
            <mxPoint as="offset" />
          </mxGeometry>
        </mxCell>
        <mxCell id="xv2MYvfBe1ahjcZ1Np9l-5" value="ADD&lt;div&gt;RESERV.&lt;/div&gt;" style="rhombus;whiteSpace=wrap;html=1;" vertex="1" parent="WIyWlLk6GJQsqaUBKTNV-1">
          <mxGeometry x="20" y="290" width="80" height="80" as="geometry" />
        </mxCell>
        <mxCell id="xv2MYvfBe1ahjcZ1Np9l-19" style="edgeStyle=orthogonalEdgeStyle;rounded=0;orthogonalLoop=1;jettySize=auto;html=1;exitX=0.5;exitY=1;exitDx=0;exitDy=0;" edge="1" parent="WIyWlLk6GJQsqaUBKTNV-1" source="xv2MYvfBe1ahjcZ1Np9l-6" target="xv2MYvfBe1ahjcZ1Np9l-7">
          <mxGeometry relative="1" as="geometry" />
        </mxCell>
        <mxCell id="xv2MYvfBe1ahjcZ1Np9l-35" value="NO" style="edgeLabel;html=1;align=center;verticalAlign=middle;resizable=0;points=[];" vertex="1" connectable="0" parent="xv2MYvfBe1ahjcZ1Np9l-19">
          <mxGeometry x="-0.3079" relative="1" as="geometry">
            <mxPoint as="offset" />
          </mxGeometry>
        </mxCell>
        <mxCell id="xv2MYvfBe1ahjcZ1Np9l-6" value="&lt;div&gt;REM&lt;/div&gt;&lt;div&gt;RESERV.&lt;/div&gt;" style="rhombus;whiteSpace=wrap;html=1;" vertex="1" parent="WIyWlLk6GJQsqaUBKTNV-1">
          <mxGeometry x="20" y="400" width="80" height="80" as="geometry" />
        </mxCell>
        <mxCell id="xv2MYvfBe1ahjcZ1Np9l-20" style="edgeStyle=orthogonalEdgeStyle;rounded=0;orthogonalLoop=1;jettySize=auto;html=1;exitX=0.5;exitY=1;exitDx=0;exitDy=0;entryX=0.5;entryY=0;entryDx=0;entryDy=0;" edge="1" parent="WIyWlLk6GJQsqaUBKTNV-1" source="xv2MYvfBe1ahjcZ1Np9l-7" target="xv2MYvfBe1ahjcZ1Np9l-8">
          <mxGeometry relative="1" as="geometry" />
        </mxCell>
        <mxCell id="xv2MYvfBe1ahjcZ1Np9l-36" value="NO" style="edgeLabel;html=1;align=center;verticalAlign=middle;resizable=0;points=[];" vertex="1" connectable="0" parent="xv2MYvfBe1ahjcZ1Np9l-20">
          <mxGeometry x="-0.4982" relative="1" as="geometry">
            <mxPoint as="offset" />
          </mxGeometry>
        </mxCell>
        <mxCell id="xv2MYvfBe1ahjcZ1Np9l-61" style="edgeStyle=orthogonalEdgeStyle;rounded=0;orthogonalLoop=1;jettySize=auto;html=1;exitX=1;exitY=0.5;exitDx=0;exitDy=0;" edge="1" parent="WIyWlLk6GJQsqaUBKTNV-1" source="xv2MYvfBe1ahjcZ1Np9l-7" target="xv2MYvfBe1ahjcZ1Np9l-60">
          <mxGeometry relative="1" as="geometry" />
        </mxCell>
        <mxCell id="xv2MYvfBe1ahjcZ1Np9l-63" value="YES" style="edgeLabel;html=1;align=center;verticalAlign=middle;resizable=0;points=[];" vertex="1" connectable="0" parent="xv2MYvfBe1ahjcZ1Np9l-61">
          <mxGeometry x="-0.5368" y="4" relative="1" as="geometry">
            <mxPoint as="offset" />
          </mxGeometry>
        </mxCell>
        <mxCell id="xv2MYvfBe1ahjcZ1Np9l-7" value="PRINTLIST" style="rhombus;whiteSpace=wrap;html=1;" vertex="1" parent="WIyWlLk6GJQsqaUBKTNV-1">
          <mxGeometry x="20" y="520" width="80" height="80" as="geometry" />
        </mxCell>
        <mxCell id="xv2MYvfBe1ahjcZ1Np9l-21" style="edgeStyle=orthogonalEdgeStyle;rounded=0;orthogonalLoop=1;jettySize=auto;html=1;exitX=0.5;exitY=1;exitDx=0;exitDy=0;" edge="1" parent="WIyWlLk6GJQsqaUBKTNV-1" source="xv2MYvfBe1ahjcZ1Np9l-8" target="xv2MYvfBe1ahjcZ1Np9l-9">
          <mxGeometry relative="1" as="geometry" />
        </mxCell>
        <mxCell id="xv2MYvfBe1ahjcZ1Np9l-37" value="NO" style="edgeLabel;html=1;align=center;verticalAlign=middle;resizable=0;points=[];" vertex="1" connectable="0" parent="xv2MYvfBe1ahjcZ1Np9l-21">
          <mxGeometry x="-0.2289" relative="1" as="geometry">
            <mxPoint as="offset" />
          </mxGeometry>
        </mxCell>
        <mxCell id="xv2MYvfBe1ahjcZ1Np9l-66" style="edgeStyle=orthogonalEdgeStyle;rounded=0;orthogonalLoop=1;jettySize=auto;html=1;exitX=1;exitY=0.5;exitDx=0;exitDy=0;" edge="1" parent="WIyWlLk6GJQsqaUBKTNV-1" source="xv2MYvfBe1ahjcZ1Np9l-8" target="xv2MYvfBe1ahjcZ1Np9l-64">
          <mxGeometry relative="1" as="geometry" />
        </mxCell>
        <mxCell id="xv2MYvfBe1ahjcZ1Np9l-69" value="YES" style="edgeLabel;html=1;align=center;verticalAlign=middle;resizable=0;points=[];" vertex="1" connectable="0" parent="xv2MYvfBe1ahjcZ1Np9l-66">
          <mxGeometry x="-0.2737" relative="1" as="geometry">
            <mxPoint as="offset" />
          </mxGeometry>
        </mxCell>
        <mxCell id="xv2MYvfBe1ahjcZ1Np9l-8" value="SEARCH" style="rhombus;whiteSpace=wrap;html=1;" vertex="1" parent="WIyWlLk6GJQsqaUBKTNV-1">
          <mxGeometry x="20" y="630" width="80" height="80" as="geometry" />
        </mxCell>
        <mxCell id="xv2MYvfBe1ahjcZ1Np9l-22" style="edgeStyle=orthogonalEdgeStyle;rounded=0;orthogonalLoop=1;jettySize=auto;html=1;exitX=0.5;exitY=1;exitDx=0;exitDy=0;entryX=0.5;entryY=0;entryDx=0;entryDy=0;" edge="1" parent="WIyWlLk6GJQsqaUBKTNV-1" source="xv2MYvfBe1ahjcZ1Np9l-9" target="xv2MYvfBe1ahjcZ1Np9l-10">
          <mxGeometry relative="1" as="geometry" />
        </mxCell>
        <mxCell id="xv2MYvfBe1ahjcZ1Np9l-40" value="NO" style="edgeLabel;html=1;align=center;verticalAlign=middle;resizable=0;points=[];" vertex="1" connectable="0" parent="xv2MYvfBe1ahjcZ1Np9l-22">
          <mxGeometry x="-0.3342" relative="1" as="geometry">
            <mxPoint as="offset" />
          </mxGeometry>
        </mxCell>
        <mxCell id="xv2MYvfBe1ahjcZ1Np9l-83" style="edgeStyle=orthogonalEdgeStyle;rounded=0;orthogonalLoop=1;jettySize=auto;html=1;exitX=1;exitY=0.5;exitDx=0;exitDy=0;entryX=0;entryY=0.5;entryDx=0;entryDy=0;" edge="1" parent="WIyWlLk6GJQsqaUBKTNV-1" source="xv2MYvfBe1ahjcZ1Np9l-9" target="xv2MYvfBe1ahjcZ1Np9l-70">
          <mxGeometry relative="1" as="geometry" />
        </mxCell>
        <mxCell id="xv2MYvfBe1ahjcZ1Np9l-84" value="YES" style="edgeLabel;html=1;align=center;verticalAlign=middle;resizable=0;points=[];" vertex="1" connectable="0" parent="xv2MYvfBe1ahjcZ1Np9l-83">
          <mxGeometry x="-0.3263" y="-2" relative="1" as="geometry">
            <mxPoint as="offset" />
          </mxGeometry>
        </mxCell>
        <mxCell id="xv2MYvfBe1ahjcZ1Np9l-9" value="CHANGE&lt;div&gt;SEAT&lt;/div&gt;" style="rhombus;whiteSpace=wrap;html=1;" vertex="1" parent="WIyWlLk6GJQsqaUBKTNV-1">
          <mxGeometry x="20" y="750" width="80" height="80" as="geometry" />
        </mxCell>
        <mxCell id="xv2MYvfBe1ahjcZ1Np9l-23" style="edgeStyle=orthogonalEdgeStyle;rounded=0;orthogonalLoop=1;jettySize=auto;html=1;exitX=0.5;exitY=1;exitDx=0;exitDy=0;entryX=0.5;entryY=0;entryDx=0;entryDy=0;" edge="1" parent="WIyWlLk6GJQsqaUBKTNV-1" source="xv2MYvfBe1ahjcZ1Np9l-10" target="xv2MYvfBe1ahjcZ1Np9l-11">
          <mxGeometry relative="1" as="geometry" />
        </mxCell>
        <mxCell id="xv2MYvfBe1ahjcZ1Np9l-41" value="NO" style="edgeLabel;html=1;align=center;verticalAlign=middle;resizable=0;points=[];" vertex="1" connectable="0" parent="xv2MYvfBe1ahjcZ1Np9l-23">
          <mxGeometry x="-0.1053" y="-1" relative="1" as="geometry">
            <mxPoint as="offset" />
          </mxGeometry>
        </mxCell>
        <mxCell id="xv2MYvfBe1ahjcZ1Np9l-10" value="CHANGE&amp;nbsp;&lt;div&gt;FOOD&lt;/div&gt;" style="rhombus;whiteSpace=wrap;html=1;" vertex="1" parent="WIyWlLk6GJQsqaUBKTNV-1">
          <mxGeometry x="20" y="870" width="80" height="80" as="geometry" />
        </mxCell>
        <mxCell id="xv2MYvfBe1ahjcZ1Np9l-24" style="edgeStyle=orthogonalEdgeStyle;rounded=0;orthogonalLoop=1;jettySize=auto;html=1;exitX=0.5;exitY=1;exitDx=0;exitDy=0;" edge="1" parent="WIyWlLk6GJQsqaUBKTNV-1" source="xv2MYvfBe1ahjcZ1Np9l-11" target="xv2MYvfBe1ahjcZ1Np9l-12">
          <mxGeometry relative="1" as="geometry" />
        </mxCell>
        <mxCell id="xv2MYvfBe1ahjcZ1Np9l-42" value="NO" style="edgeLabel;html=1;align=center;verticalAlign=middle;resizable=0;points=[];" vertex="1" connectable="0" parent="xv2MYvfBe1ahjcZ1Np9l-24">
          <mxGeometry x="-0.2439" relative="1" as="geometry">
            <mxPoint as="offset" />
          </mxGeometry>
        </mxCell>
        <mxCell id="xv2MYvfBe1ahjcZ1Np9l-11" value="PRODUCE&lt;div&gt;REPORTS&lt;/div&gt;" style="rhombus;whiteSpace=wrap;html=1;" vertex="1" parent="WIyWlLk6GJQsqaUBKTNV-1">
          <mxGeometry x="20" y="1000" width="80" height="80" as="geometry" />
        </mxCell>
        <mxCell id="xv2MYvfBe1ahjcZ1Np9l-25" style="edgeStyle=orthogonalEdgeStyle;rounded=0;orthogonalLoop=1;jettySize=auto;html=1;exitX=0.5;exitY=1;exitDx=0;exitDy=0;entryX=0.5;entryY=0;entryDx=0;entryDy=0;" edge="1" parent="WIyWlLk6GJQsqaUBKTNV-1" source="xv2MYvfBe1ahjcZ1Np9l-12" target="xv2MYvfBe1ahjcZ1Np9l-14">
          <mxGeometry relative="1" as="geometry" />
        </mxCell>
        <mxCell id="xv2MYvfBe1ahjcZ1Np9l-43" value="NO" style="edgeLabel;html=1;align=center;verticalAlign=middle;resizable=0;points=[];" vertex="1" connectable="0" parent="xv2MYvfBe1ahjcZ1Np9l-25">
          <mxGeometry x="-0.2342" relative="1" as="geometry">
            <mxPoint as="offset" />
          </mxGeometry>
        </mxCell>
        <mxCell id="xv2MYvfBe1ahjcZ1Np9l-12" value="COPY DATABASE" style="rhombus;whiteSpace=wrap;html=1;" vertex="1" parent="WIyWlLk6GJQsqaUBKTNV-1">
          <mxGeometry x="20" y="1140" width="80" height="80" as="geometry" />
        </mxCell>
        <mxCell id="xv2MYvfBe1ahjcZ1Np9l-27" style="edgeStyle=orthogonalEdgeStyle;rounded=0;orthogonalLoop=1;jettySize=auto;html=1;exitX=0;exitY=0.5;exitDx=0;exitDy=0;entryX=0;entryY=0.5;entryDx=0;entryDy=0;" edge="1" parent="WIyWlLk6GJQsqaUBKTNV-1" source="xv2MYvfBe1ahjcZ1Np9l-13" target="xv2MYvfBe1ahjcZ1Np9l-3">
          <mxGeometry relative="1" as="geometry" />
        </mxCell>
        <mxCell id="xv2MYvfBe1ahjcZ1Np9l-13" value="ONE LOOP PASSES" style="rounded=1;whiteSpace=wrap;html=1;" vertex="1" parent="WIyWlLk6GJQsqaUBKTNV-1">
          <mxGeometry x="10" y="1350" width="120" height="60" as="geometry" />
        </mxCell>
        <mxCell id="xv2MYvfBe1ahjcZ1Np9l-14" value="INVALID!" style="rounded=0;whiteSpace=wrap;html=1;" vertex="1" parent="WIyWlLk6GJQsqaUBKTNV-1">
          <mxGeometry x="20" y="1260" width="80" height="31" as="geometry" />
        </mxCell>
        <mxCell id="xv2MYvfBe1ahjcZ1Np9l-26" style="edgeStyle=orthogonalEdgeStyle;rounded=0;orthogonalLoop=1;jettySize=auto;html=1;exitX=0.5;exitY=1;exitDx=0;exitDy=0;entryX=0.433;entryY=0.02;entryDx=0;entryDy=0;entryPerimeter=0;" edge="1" parent="WIyWlLk6GJQsqaUBKTNV-1" source="xv2MYvfBe1ahjcZ1Np9l-14" target="xv2MYvfBe1ahjcZ1Np9l-13">
          <mxGeometry relative="1" as="geometry" />
        </mxCell>
        <mxCell id="xv2MYvfBe1ahjcZ1Np9l-31" style="edgeStyle=orthogonalEdgeStyle;rounded=0;orthogonalLoop=1;jettySize=auto;html=1;exitX=1;exitY=0.5;exitDx=0;exitDy=0;entryX=0;entryY=0.5;entryDx=0;entryDy=0;" edge="1" parent="WIyWlLk6GJQsqaUBKTNV-1" source="xv2MYvfBe1ahjcZ1Np9l-28" target="xv2MYvfBe1ahjcZ1Np9l-29">
          <mxGeometry relative="1" as="geometry" />
        </mxCell>
        <mxCell id="xv2MYvfBe1ahjcZ1Np9l-28" value="LOOP BREAKS" style="rounded=1;whiteSpace=wrap;html=1;" vertex="1" parent="WIyWlLk6GJQsqaUBKTNV-1">
          <mxGeometry x="190" y="160" width="120" height="60" as="geometry" />
        </mxCell>
        <mxCell id="xv2MYvfBe1ahjcZ1Np9l-29" value="END" style="ellipse;whiteSpace=wrap;html=1;" vertex="1" parent="WIyWlLk6GJQsqaUBKTNV-1">
          <mxGeometry x="380" y="150" width="120" height="80" as="geometry" />
        </mxCell>
        <mxCell id="xv2MYvfBe1ahjcZ1Np9l-50" style="edgeStyle=orthogonalEdgeStyle;rounded=0;orthogonalLoop=1;jettySize=auto;html=1;exitX=1;exitY=0.5;exitDx=0;exitDy=0;" edge="1" parent="WIyWlLk6GJQsqaUBKTNV-1" source="xv2MYvfBe1ahjcZ1Np9l-44" target="xv2MYvfBe1ahjcZ1Np9l-46">
          <mxGeometry relative="1" as="geometry" />
        </mxCell>
        <mxCell id="xv2MYvfBe1ahjcZ1Np9l-44" value="ASK FOR PASSENGER&amp;nbsp;&lt;div&gt;INFO&lt;/div&gt;" style="shape=parallelogram;perimeter=parallelogramPerimeter;whiteSpace=wrap;html=1;fixedSize=1;" vertex="1" parent="WIyWlLk6GJQsqaUBKTNV-1">
          <mxGeometry x="140" y="300" width="120" height="60" as="geometry" />
        </mxCell>
        <mxCell id="xv2MYvfBe1ahjcZ1Np9l-51" style="edgeStyle=orthogonalEdgeStyle;rounded=0;orthogonalLoop=1;jettySize=auto;html=1;exitX=1;exitY=0.5;exitDx=0;exitDy=0;entryX=0;entryY=0.5;entryDx=0;entryDy=0;" edge="1" parent="WIyWlLk6GJQsqaUBKTNV-1" source="xv2MYvfBe1ahjcZ1Np9l-46" target="xv2MYvfBe1ahjcZ1Np9l-47">
          <mxGeometry relative="1" as="geometry" />
        </mxCell>
        <mxCell id="xv2MYvfBe1ahjcZ1Np9l-46" value="CREATE NODE" style="rounded=1;whiteSpace=wrap;html=1;" vertex="1" parent="WIyWlLk6GJQsqaUBKTNV-1">
          <mxGeometry x="310" y="300" width="120" height="60" as="geometry" />
        </mxCell>
        <mxCell id="xv2MYvfBe1ahjcZ1Np9l-52" style="edgeStyle=orthogonalEdgeStyle;rounded=0;orthogonalLoop=1;jettySize=auto;html=1;exitX=1;exitY=0.5;exitDx=0;exitDy=0;entryX=1;entryY=0.5;entryDx=0;entryDy=0;" edge="1" parent="WIyWlLk6GJQsqaUBKTNV-1" source="xv2MYvfBe1ahjcZ1Np9l-47" target="xv2MYvfBe1ahjcZ1Np9l-13">
          <mxGeometry relative="1" as="geometry">
            <Array as="points">
              <mxPoint x="830" y="330" />
              <mxPoint x="830" y="1380" />
            </Array>
          </mxGeometry>
        </mxCell>
        <mxCell id="xv2MYvfBe1ahjcZ1Np9l-47" value="CALL LINKEDLIST INSERT FUNCTION" style="rounded=1;whiteSpace=wrap;html=1;" vertex="1" parent="WIyWlLk6GJQsqaUBKTNV-1">
          <mxGeometry x="470" y="300" width="120" height="60" as="geometry" />
        </mxCell>
        <mxCell id="xv2MYvfBe1ahjcZ1Np9l-56" style="edgeStyle=orthogonalEdgeStyle;rounded=0;orthogonalLoop=1;jettySize=auto;html=1;exitX=1;exitY=0.5;exitDx=0;exitDy=0;entryX=0;entryY=0.5;entryDx=0;entryDy=0;" edge="1" parent="WIyWlLk6GJQsqaUBKTNV-1" source="xv2MYvfBe1ahjcZ1Np9l-53" target="xv2MYvfBe1ahjcZ1Np9l-54">
          <mxGeometry relative="1" as="geometry" />
        </mxCell>
        <mxCell id="xv2MYvfBe1ahjcZ1Np9l-53" value="ASK FOR PASSENGER ID" style="shape=parallelogram;perimeter=parallelogramPerimeter;whiteSpace=wrap;html=1;fixedSize=1;" vertex="1" parent="WIyWlLk6GJQsqaUBKTNV-1">
          <mxGeometry x="140" y="420" width="120" height="60" as="geometry" />
        </mxCell>
        <mxCell id="xv2MYvfBe1ahjcZ1Np9l-57" style="edgeStyle=orthogonalEdgeStyle;rounded=0;orthogonalLoop=1;jettySize=auto;html=1;exitX=1;exitY=0.5;exitDx=0;exitDy=0;entryX=1;entryY=0.5;entryDx=0;entryDy=0;" edge="1" parent="WIyWlLk6GJQsqaUBKTNV-1" source="xv2MYvfBe1ahjcZ1Np9l-54" target="xv2MYvfBe1ahjcZ1Np9l-13">
          <mxGeometry relative="1" as="geometry">
            <mxPoint x="820" y="1260" as="targetPoint" />
            <Array as="points">
              <mxPoint x="830" y="450" />
              <mxPoint x="830" y="1380" />
            </Array>
          </mxGeometry>
        </mxCell>
        <mxCell id="xv2MYvfBe1ahjcZ1Np9l-54" value="CALL LINKEDLIST&lt;div&gt;REMOVE FUNCTION&lt;/div&gt;" style="rounded=1;whiteSpace=wrap;html=1;" vertex="1" parent="WIyWlLk6GJQsqaUBKTNV-1">
          <mxGeometry x="310" y="420" width="120" height="60" as="geometry" />
        </mxCell>
        <mxCell id="xv2MYvfBe1ahjcZ1Np9l-55" style="edgeStyle=orthogonalEdgeStyle;rounded=0;orthogonalLoop=1;jettySize=auto;html=1;exitX=1;exitY=0.5;exitDx=0;exitDy=0;entryX=0.067;entryY=0.318;entryDx=0;entryDy=0;entryPerimeter=0;" edge="1" parent="WIyWlLk6GJQsqaUBKTNV-1" source="xv2MYvfBe1ahjcZ1Np9l-6" target="xv2MYvfBe1ahjcZ1Np9l-53">
          <mxGeometry relative="1" as="geometry" />
        </mxCell>
        <mxCell id="xv2MYvfBe1ahjcZ1Np9l-58" value="YES" style="edgeLabel;html=1;align=center;verticalAlign=middle;resizable=0;points=[];" vertex="1" connectable="0" parent="xv2MYvfBe1ahjcZ1Np9l-55">
          <mxGeometry x="-0.235" y="-1" relative="1" as="geometry">
            <mxPoint as="offset" />
          </mxGeometry>
        </mxCell>
        <mxCell id="xv2MYvfBe1ahjcZ1Np9l-62" style="edgeStyle=orthogonalEdgeStyle;rounded=0;orthogonalLoop=1;jettySize=auto;html=1;exitX=1;exitY=0.5;exitDx=0;exitDy=0;" edge="1" parent="WIyWlLk6GJQsqaUBKTNV-1" source="xv2MYvfBe1ahjcZ1Np9l-60">
          <mxGeometry relative="1" as="geometry">
            <mxPoint x="130" y="1380" as="targetPoint" />
            <Array as="points">
              <mxPoint x="830" y="560" />
              <mxPoint x="830" y="1380" />
              <mxPoint x="140" y="1380" />
            </Array>
          </mxGeometry>
        </mxCell>
        <mxCell id="xv2MYvfBe1ahjcZ1Np9l-60" value="CALL LINKEDLIST&lt;div&gt;PRINT(prints all nodes data)&lt;/div&gt;" style="rounded=1;whiteSpace=wrap;html=1;" vertex="1" parent="WIyWlLk6GJQsqaUBKTNV-1">
          <mxGeometry x="140" y="530" width="120" height="60" as="geometry" />
        </mxCell>
        <mxCell id="xv2MYvfBe1ahjcZ1Np9l-67" style="edgeStyle=orthogonalEdgeStyle;rounded=0;orthogonalLoop=1;jettySize=auto;html=1;exitX=1;exitY=0.5;exitDx=0;exitDy=0;" edge="1" parent="WIyWlLk6GJQsqaUBKTNV-1" source="xv2MYvfBe1ahjcZ1Np9l-64" target="xv2MYvfBe1ahjcZ1Np9l-65">
          <mxGeometry relative="1" as="geometry" />
        </mxCell>
        <mxCell id="xv2MYvfBe1ahjcZ1Np9l-64" value="ASK FOR ID" style="rounded=1;whiteSpace=wrap;html=1;" vertex="1" parent="WIyWlLk6GJQsqaUBKTNV-1">
          <mxGeometry x="140" y="640" width="120" height="60" as="geometry" />
        </mxCell>
        <mxCell id="xv2MYvfBe1ahjcZ1Np9l-68" style="edgeStyle=orthogonalEdgeStyle;rounded=0;orthogonalLoop=1;jettySize=auto;html=1;exitX=1;exitY=0.5;exitDx=0;exitDy=0;entryX=1;entryY=0.5;entryDx=0;entryDy=0;" edge="1" parent="WIyWlLk6GJQsqaUBKTNV-1" source="xv2MYvfBe1ahjcZ1Np9l-65" target="xv2MYvfBe1ahjcZ1Np9l-13">
          <mxGeometry relative="1" as="geometry">
            <mxPoint x="830" y="1380" as="targetPoint" />
            <Array as="points">
              <mxPoint x="830" y="670" />
              <mxPoint x="830" y="1380" />
            </Array>
          </mxGeometry>
        </mxCell>
        <mxCell id="xv2MYvfBe1ahjcZ1Np9l-65" value="CALL LINKEDLIST&lt;div&gt;SEARCH&lt;/div&gt;" style="rounded=1;whiteSpace=wrap;html=1;" vertex="1" parent="WIyWlLk6GJQsqaUBKTNV-1">
          <mxGeometry x="310" y="640" width="120" height="60" as="geometry" />
        </mxCell>
        <mxCell id="xv2MYvfBe1ahjcZ1Np9l-82" style="edgeStyle=orthogonalEdgeStyle;rounded=0;orthogonalLoop=1;jettySize=auto;html=1;exitX=1;exitY=0.5;exitDx=0;exitDy=0;entryX=0;entryY=0.5;entryDx=0;entryDy=0;" edge="1" parent="WIyWlLk6GJQsqaUBKTNV-1" source="xv2MYvfBe1ahjcZ1Np9l-70" target="xv2MYvfBe1ahjcZ1Np9l-74">
          <mxGeometry relative="1" as="geometry" />
        </mxCell>
        <mxCell id="xv2MYvfBe1ahjcZ1Np9l-70" value="ASK FOR ID" style="rounded=1;whiteSpace=wrap;html=1;" vertex="1" parent="WIyWlLk6GJQsqaUBKTNV-1">
          <mxGeometry x="140" y="760" width="120" height="60" as="geometry" />
        </mxCell>
        <mxCell id="xv2MYvfBe1ahjcZ1Np9l-81" style="edgeStyle=orthogonalEdgeStyle;rounded=0;orthogonalLoop=1;jettySize=auto;html=1;exitX=1;exitY=0.5;exitDx=0;exitDy=0;entryX=0;entryY=0.5;entryDx=0;entryDy=0;" edge="1" parent="WIyWlLk6GJQsqaUBKTNV-1" source="xv2MYvfBe1ahjcZ1Np9l-71" target="xv2MYvfBe1ahjcZ1Np9l-72">
          <mxGeometry relative="1" as="geometry" />
        </mxCell>
        <mxCell id="xv2MYvfBe1ahjcZ1Np9l-71" value="ASK FOR NEW SEAT" style="rounded=1;whiteSpace=wrap;html=1;" vertex="1" parent="WIyWlLk6GJQsqaUBKTNV-1">
          <mxGeometry x="400" y="760" width="120" height="60" as="geometry" />
        </mxCell>
        <mxCell id="xv2MYvfBe1ahjcZ1Np9l-78" style="edgeStyle=orthogonalEdgeStyle;rounded=0;orthogonalLoop=1;jettySize=auto;html=1;exitX=0.5;exitY=1;exitDx=0;exitDy=0;entryX=0.5;entryY=1;entryDx=0;entryDy=0;" edge="1" parent="WIyWlLk6GJQsqaUBKTNV-1" source="xv2MYvfBe1ahjcZ1Np9l-72" target="xv2MYvfBe1ahjcZ1Np9l-71">
          <mxGeometry relative="1" as="geometry" />
        </mxCell>
        <mxCell id="xv2MYvfBe1ahjcZ1Np9l-89" value="YES" style="edgeLabel;html=1;align=center;verticalAlign=middle;resizable=0;points=[];" vertex="1" connectable="0" parent="xv2MYvfBe1ahjcZ1Np9l-78">
          <mxGeometry x="-0.0768" y="1" relative="1" as="geometry">
            <mxPoint as="offset" />
          </mxGeometry>
        </mxCell>
        <mxCell id="xv2MYvfBe1ahjcZ1Np9l-79" style="edgeStyle=orthogonalEdgeStyle;rounded=0;orthogonalLoop=1;jettySize=auto;html=1;exitX=1;exitY=0.5;exitDx=0;exitDy=0;entryX=0;entryY=0.5;entryDx=0;entryDy=0;" edge="1" parent="WIyWlLk6GJQsqaUBKTNV-1" source="xv2MYvfBe1ahjcZ1Np9l-72" target="xv2MYvfBe1ahjcZ1Np9l-73">
          <mxGeometry relative="1" as="geometry" />
        </mxCell>
        <mxCell id="xv2MYvfBe1ahjcZ1Np9l-88" value="NO" style="edgeLabel;html=1;align=center;verticalAlign=middle;resizable=0;points=[];" vertex="1" connectable="0" parent="xv2MYvfBe1ahjcZ1Np9l-79">
          <mxGeometry x="-0.4579" relative="1" as="geometry">
            <mxPoint as="offset" />
          </mxGeometry>
        </mxCell>
        <mxCell id="xv2MYvfBe1ahjcZ1Np9l-72" value="SEAT&lt;div&gt;TAKEN?&lt;/div&gt;&lt;div&gt;(search)&lt;/div&gt;" style="rhombus;whiteSpace=wrap;html=1;" vertex="1" parent="WIyWlLk6GJQsqaUBKTNV-1">
          <mxGeometry x="570" y="750" width="80" height="80" as="geometry" />
        </mxCell>
        <mxCell id="xv2MYvfBe1ahjcZ1Np9l-80" style="edgeStyle=orthogonalEdgeStyle;rounded=0;orthogonalLoop=1;jettySize=auto;html=1;exitX=1;exitY=0.5;exitDx=0;exitDy=0;" edge="1" parent="WIyWlLk6GJQsqaUBKTNV-1" source="xv2MYvfBe1ahjcZ1Np9l-73">
          <mxGeometry relative="1" as="geometry">
            <mxPoint x="830" y="790" as="targetPoint" />
          </mxGeometry>
        </mxCell>
        <mxCell id="xv2MYvfBe1ahjcZ1Np9l-73" value="CHANGE SEAT&lt;div&gt;FOR THAT NODE&lt;/div&gt;" style="rounded=1;whiteSpace=wrap;html=1;" vertex="1" parent="WIyWlLk6GJQsqaUBKTNV-1">
          <mxGeometry x="690" y="760" width="120" height="60" as="geometry" />
        </mxCell>
        <mxCell id="xv2MYvfBe1ahjcZ1Np9l-76" style="edgeStyle=orthogonalEdgeStyle;rounded=0;orthogonalLoop=1;jettySize=auto;html=1;exitX=0.5;exitY=1;exitDx=0;exitDy=0;entryX=0.5;entryY=1;entryDx=0;entryDy=0;" edge="1" parent="WIyWlLk6GJQsqaUBKTNV-1" source="xv2MYvfBe1ahjcZ1Np9l-74" target="xv2MYvfBe1ahjcZ1Np9l-70">
          <mxGeometry relative="1" as="geometry" />
        </mxCell>
        <mxCell id="xv2MYvfBe1ahjcZ1Np9l-85" value="NO" style="edgeLabel;html=1;align=center;verticalAlign=middle;resizable=0;points=[];" vertex="1" connectable="0" parent="xv2MYvfBe1ahjcZ1Np9l-76">
          <mxGeometry x="-0.0068" y="1" relative="1" as="geometry">
            <mxPoint as="offset" />
          </mxGeometry>
        </mxCell>
        <mxCell id="xv2MYvfBe1ahjcZ1Np9l-77" style="edgeStyle=orthogonalEdgeStyle;rounded=0;orthogonalLoop=1;jettySize=auto;html=1;exitX=1;exitY=0.5;exitDx=0;exitDy=0;entryX=0;entryY=0.5;entryDx=0;entryDy=0;" edge="1" parent="WIyWlLk6GJQsqaUBKTNV-1" source="xv2MYvfBe1ahjcZ1Np9l-74" target="xv2MYvfBe1ahjcZ1Np9l-71">
          <mxGeometry relative="1" as="geometry" />
        </mxCell>
        <mxCell id="xv2MYvfBe1ahjcZ1Np9l-86" value="YES" style="edgeLabel;html=1;align=center;verticalAlign=middle;resizable=0;points=[];" vertex="1" connectable="0" parent="xv2MYvfBe1ahjcZ1Np9l-77">
          <mxGeometry x="-0.6" y="-2" relative="1" as="geometry">
            <mxPoint as="offset" />
          </mxGeometry>
        </mxCell>
        <mxCell id="xv2MYvfBe1ahjcZ1Np9l-74" value="ID EXISTS&lt;div&gt;(search)&lt;/div&gt;" style="rhombus;whiteSpace=wrap;html=1;" vertex="1" parent="WIyWlLk6GJQsqaUBKTNV-1">
          <mxGeometry x="280" y="750" width="80" height="80" as="geometry" />
        </mxCell>
      </root>
    </mxGraphModel>
  </diagram>
</mxfile>
